<svg xmlns="http://www.w3.org/2000/svg" viewBox="0 0 290.53 66.98"><defs><style>.cls-1{fill:#414042;}.cls-2{fill:#0c9ad6;}.cls-3{fill:#8bc03f;}.cls-4{fill:#1a1a1a;}</style></defs><title>cfd_logo_color</title><g id="Layer_2" data-name="Layer 2"><g id="Layer_1-2" data-name="Layer 1"><path class="cls-1" d="M74.48,15.25C74.48,6.19,81.33,0,90,0A13.6,13.6,0,0,1,102.5,7.2l-.49.24a7.24,7.24,0,0,1-7.36-.39A8.11,8.11,0,0,0,90,5.57c-5.13,0-9,4.11-9,9.68s3.88,9.67,9,9.67a8.13,8.13,0,0,0,4.34-1.23A8,8,0,0,1,102,23l.49.23A13.67,13.67,0,0,1,90,30.49C81.33,30.49,74.48,24.3,74.48,15.25Z"/><path class="cls-1" d="M124.71,24.88H111.55L109.69,30H102.8L114.2.49h7.86L133.42,30h-6.85Zm-11.49-5.44H123L118.13,5.92Z"/><path class="cls-1" d="M147,19.4h-4.6V30h-6.27V.49h13.78c6.14,0,9.9,4,9.9,9.5,0,5.21-3.27,8-6.45,8.75L160,30H152.8Zm2-13.52h-6.58V14H149c2.52,0,4.42-1.59,4.42-4.07S151.52,5.88,149,5.88Z"/><path class="cls-1" d="M164.55.49H185.4V5.88H170.82v6.41h14.27v5.38H170.82v6.86H185.4V30H164.55Z"/><path class="cls-1" d="M190.3.49h20.85V5.88H196.57v6.41h14.28v5.38H196.57V30H190.3Z"/><path class="cls-1" d="M226.39,19.4h-4.6V30h-6.27V.49h13.79c6.14,0,9.89,4,9.89,9.5,0,5.21-3.27,8-6.45,8.75L239.38,30h-7.2Zm2-13.52h-6.59V14h6.59c2.52,0,4.42-1.59,4.42-4.07S230.9,5.88,228.38,5.88Z"/><path class="cls-1" d="M243.92.49h20.86V5.88H250.2v6.41h14.27v5.38H250.2v6.86h14.58V30H243.92Z"/><path class="cls-1" d="M269.67.49h20.86V5.88H276v6.41h14.27v5.38H276v6.86h14.58V30H269.67Z"/><path class="cls-2" d="M67.28,33.49a34.18,34.18,0,0,1-4.67,17.69l-.18.3C57.7,59.42,49,67,34.3,67H0v0A12.2,12.2,0,0,1,7.92,55.53a12.44,12.44,0,0,1,4.46-.82l21.92,0a17.52,17.52,0,0,0,9.48-2.86c5.77-3.51,9.48-10.06,9.48-18.4s-3.71-14.83-9.48-18.38h0c-.27-.16-.54-.33-.83-.48a18.25,18.25,0,0,0-8.64-2.39H12.36a12.43,12.43,0,0,1-4.42-.81A12.22,12.22,0,0,1,0,0H34.3C49.06,0,57.75,7.44,62.37,15.41c.05.08.1.16.14.24A34,34,0,0,1,67.28,33.49Z"/><path class="cls-1" d="M62.61,51.18l-.18.3c.06-.1.12-.2.19-.3Z"/><path class="cls-1" d="M62.61,51.18l-.18.3C57.69,59.43,49,67,34.3,67h-.51c-10.46-.13-19.71-4.35-25.87-11.44A33.08,33.08,0,0,1,0,33.49,33,33,0,0,1,7.94,11.43C14,4.43,23.1.24,33.38,0h.92C49.11,0,57.82,7.51,62.43,15.51l.08.13-.62.31a19.06,19.06,0,0,1-18.06-.81l-.06,0a.11.11,0,0,1-.06,0,7,7,0,0,0-.77-.44,19.84,19.84,0,0,0-9.15-2.39c-11.11.26-19.49,9.2-19.49,21.25S22.76,54.57,34,54.73a19.79,19.79,0,0,0,9-2.35c.23-.12.46-.25.68-.39l.28-.17.09,0a19.29,19.29,0,0,1,18-.89Z"/><path class="cls-3" d="M62.62,51.18c-.07.09-.12.2-.19.29C57.7,59.43,49,67,34.3,67h-.92C23.09,66.73,14,62.53,7.92,55.52a12.65,12.65,0,0,1,4.46-.81s21.24,0,21.41,0a19.77,19.77,0,0,0,10-2.84l.12-.07A19.29,19.29,0,0,1,62,50.88Z"/><path class="cls-2" d="M79.46,37.69h2.46V66.93H79.46Z"/><path class="cls-1" d="M124,37.69h2.46V66.93H124Z"/><path class="cls-1" d="M157.09,54.83h-6.35v12.1h-2.47V37.69H159c5,0,8.78,3.2,8.78,8.55a8,8,0,0,1-8,8.42l8.34,12.27h-3ZM158.82,40h-8.08V52.55h8.08a6.07,6.07,0,0,0,6.39-6.31A6,6,0,0,0,158.82,40Z"/><path class="cls-1" d="M188.58,37.69h18.28V40H191V50.8h15.51v2.28H191V64.65h15.82v2.28H188.58Z"/><path class="cls-1" d="M226.5,52.33A14.17,14.17,0,0,1,241,37.69a13.14,13.14,0,0,1,10.59,5L249.54,44A10.59,10.59,0,0,0,241,39.9c-6.7,0-11.92,5.05-11.92,12.43S234.32,64.77,241,64.77a10.6,10.6,0,0,0,8.52-4.12l2.07,1.27A13.05,13.05,0,0,1,241,67,14.18,14.18,0,0,1,226.5,52.33Z"/><path class="cls-1" d="M278.6,40h-9.42V37.69h21.35V40h-9.42v27H278.6Z"/><path class="cls-4" d="M88.67,37.69H79.46A2.27,2.27,0,0,0,81.71,40h7c7.65,0,12,5.53,12,12.36s-4.37,12.32-12,12.32h-7a2.27,2.27,0,0,0-2.25,2.28h9.21c8.94,0,14.56-6.49,14.56-14.6S97.61,37.69,88.67,37.69Z"/></g></g></svg>