<svg xmlns="http://www.w3.org/2000/svg" viewBox="0 0 67.28 66.98"><defs><style>.cls-1{fill:#0c9ad6;}.cls-2{fill:#e6e7e8;}.cls-3{fill:#8bc03f;}</style></defs><title>Icon</title><g id="Layer_2" data-name="Layer 2"><g id="Layer_1-2" data-name="Layer 1"><path class="cls-1" d="M67.28,33.49a34.18,34.18,0,0,1-4.67,17.69l-.18.3C57.7,59.42,49,67,34.3,67H0v0A12.2,12.2,0,0,1,7.92,55.53a12.44,12.44,0,0,1,4.46-.82l21.92,0a17.52,17.52,0,0,0,9.48-2.86c5.77-3.51,9.48-10.06,9.48-18.4s-3.71-14.83-9.48-18.38h0c-.27-.16-.54-.33-.83-.48a18.25,18.25,0,0,0-8.64-2.39H12.36a12.43,12.43,0,0,1-4.42-.81A12.22,12.22,0,0,1,0,0H34.3C49.06,0,57.75,7.44,62.37,15.41c.05.08.1.16.14.24A34,34,0,0,1,67.28,33.49Z"/><path class="cls-2" d="M62.61,51.18l-.18.3c.06-.1.12-.2.19-.3Z"/><path class="cls-2" d="M62.61,51.18l-.18.3C57.69,59.43,49,67,34.3,67h-.51c-10.46-.13-19.71-4.35-25.87-11.44A33.08,33.08,0,0,1,0,33.49,33,33,0,0,1,7.94,11.43C14,4.43,23.1.24,33.38,0h.92C49.11,0,57.82,7.51,62.43,15.51l.08.13-.62.31a19.06,19.06,0,0,1-18.06-.81l-.06,0a.11.11,0,0,1-.06,0,7,7,0,0,0-.77-.44,19.84,19.84,0,0,0-9.15-2.39c-11.11.26-19.49,9.2-19.49,21.25S22.76,54.57,34,54.73a19.79,19.79,0,0,0,9-2.35c.23-.12.46-.25.68-.39l.28-.17.09,0a19.29,19.29,0,0,1,18-.89Z"/><path class="cls-3" d="M62.62,51.18c-.07.09-.12.2-.19.29C57.7,59.43,49,67,34.3,67h-.92C23.09,66.73,14,62.53,7.92,55.52a12.65,12.65,0,0,1,4.46-.81s21.24,0,21.41,0a19.77,19.77,0,0,0,10-2.84l.12-.07A19.29,19.29,0,0,1,62,50.88Z"/></g></g></svg>